<?xml version="1.0" encoding="UTF-8" standalone="no"?>
<!DOCTYPE svg PUBLIC "-//W3C//DTD SVG 1.1//EN" "http://www.w3.org/Graphics/SVG/1.1/DTD/svg11.dtd">
<svg width="100%" height="100%" viewBox="0 0 50 50" version="1.1" xmlns="http://www.w3.org/2000/svg" xmlns:xlink="http://www.w3.org/1999/xlink" xml:space="preserve" xmlns:serif="http://www.serif.com/" style="fill-rule:evenodd;clip-rule:evenodd;stroke-linejoin:round;stroke-miterlimit:2;">
    <rect id="Artboard1" x="0" y="0" width="50" height="50" style="fill:none;"/>
    <g id="Artboard11" serif:id="Artboard1">
        <circle cx="25" cy="25" r="25" style="fill:rgb(83,182,160);"/>
        <circle cx="25" cy="25" r="25" style="fill:rgb(254,78,96);"/>
        <g transform="matrix(0.608956,0,0,0.694444,11.9412,7.04516)">
            <path d="M35.677,34.111C35.677,35.679 35.381,37.111 34.789,38.407C34.197,39.703 33.349,40.807 32.245,41.719C31.141,42.631 29.797,43.335 28.213,43.831C26.629,44.327 24.861,44.575 22.909,44.575L7.213,44.575L7.213,7.135L21.997,7.135C23.725,7.135 25.301,7.367 26.725,7.831C28.149,8.295 29.365,8.943 30.373,9.775C31.381,10.607 32.157,11.591 32.701,12.727C33.245,13.863 33.517,15.119 33.517,16.495C33.517,18.703 32.997,20.495 31.957,21.871C30.917,23.247 29.485,24.111 27.661,24.463L27.709,24.559C28.733,24.655 29.717,24.935 30.661,25.399C31.605,25.863 32.453,26.503 33.205,27.319C33.957,28.135 34.557,29.111 35.005,30.247C35.453,31.383 35.677,32.671 35.677,34.111ZM26.461,17.791C26.461,16.959 26.301,16.239 25.981,15.631C25.661,15.023 25.237,14.511 24.709,14.095C24.181,13.679 23.581,13.375 22.909,13.183C22.237,12.991 21.533,12.895 20.797,12.895L14.317,12.895L14.317,22.351L21.277,22.351C22.845,22.351 24.101,21.975 25.045,21.223C25.989,20.471 26.461,19.327 26.461,17.791ZM28.525,33.151C28.525,32.255 28.333,31.479 27.949,30.823C27.565,30.167 27.061,29.623 26.437,29.191C25.813,28.759 25.093,28.431 24.277,28.207C23.461,27.983 22.621,27.871 21.757,27.871L14.317,27.871L14.317,38.623L21.949,38.623C23.901,38.623 25.485,38.159 26.701,37.231C27.917,36.303 28.525,34.943 28.525,33.151Z" style="fill:white;fill-rule:nonzero;"/>
        </g>
    </g>
</svg>
