<?xml version="1.0" encoding="utf-8"?>
<svg xmlns="http://www.w3.org/2000/svg" version="1.1" viewBox="0 0 50 50" id="svg4">
  <path style="opacity: 1; fill-opacity: 1; stroke: none; stroke-width: 3.00568; stroke-linecap: round; stroke-linejoin: round; stroke-miterlimit: 4; stroke-dasharray: none; stroke-opacity: 1; paint-order: stroke; fill: rgb(170, 170, 170);" d="M 25 0 C 11.193 0 0 11.193 0 25 C 0 38.807 11.193 50 25 50 C 38.807 50 50 38.807 50 25 C 50 11.193 38.807 0 25 0 Z M 11.387 12.008 L 28.425 12.008 C 28.922 12.008 29.28 12.271 29.487 12.563 C 29.667 12.815 29.743 13.115 29.743 13.375 L 29.743 16.616 L 27.337 16.616 L 27.337 14.417 L 12.476 14.417 L 12.476 25.485 L 14.779 25.485 L 14.779 27.89 L 11.387 27.89 C 10.895 27.89 10.534 27.636 10.322 27.339 C 10.14 27.083 10.066 26.783 10.066 26.522 L 10.066 13.375 C 10.066 13.115 10.142 12.815 10.322 12.563 C 10.531 12.269 10.89 12.008 11.387 12.008 Z M 21.577 22.11 L 38.614 22.11 C 39.111 22.11 39.469 22.372 39.678 22.665 C 39.858 22.917 39.934 23.216 39.934 23.478 L 39.934 36.625 C 39.934 36.886 39.859 37.186 39.678 37.441 C 39.468 37.736 39.108 37.992 38.614 37.992 L 21.577 37.992 C 21.083 37.992 20.724 37.736 20.513 37.441 C 20.332 37.186 20.255 36.886 20.255 36.625 L 20.255 23.478 C 20.255 23.216 20.333 22.917 20.513 22.665 C 20.722 22.372 21.08 22.11 21.577 22.11 Z M 22.665 24.519 L 22.665 35.585 L 37.526 35.585 L 37.526 24.519 L 22.665 24.519 Z" id="path4749"/>
</svg>