<?xml version="1.0" encoding="utf-8"?>
<svg version="1.1" viewBox="0 0 50 50" id="svg11" xmlns="http://www.w3.org/2000/svg">
  <path id="outline_up" style="stroke: none; fill-opacity: 1; fill: rgb(170, 170, 170);" d="M 20 0 C 18.159 0 16.667 1.492 16.667 3.333 L 16.667 16.667 L 3.333 16.667 C 1.492 16.667 0 18.159 0 20 L 0 30 C 0 31.841 1.492 33.333 3.333 33.333 L 16.667 33.333 L 16.667 46.667 C 16.667 48.508 18.159 50 20 50 L 30 50 C 31.841 50 33.333 48.508 33.333 46.667 L 33.333 33.333 L 46.667 33.333 C 48.508 33.333 50 31.841 50 30 L 50 20 C 50 18.159 48.508 16.667 46.667 16.667 L 33.333 16.667 L 33.333 3.333 C 33.333 1.492 31.841 0 30 0 L 20 0 Z M 9.972 20 C 10.122 19.995 10.269 20.031 10.4 20.103 C 10.667 20.249 10.833 20.529 10.833 20.833 L 10.833 29.167 C 10.833 29.808 10.138 30.209 9.583 29.888 C 9.572 29.881 9.561 29.875 9.551 29.868 L 3.05 25.701 C 2.539 25.374 2.539 24.626 3.05 24.299 L 9.551 20.132 C 9.677 20.051 9.823 20.005 9.972 20 Z M 40.028 20 C 40.177 20.005 40.323 20.051 40.449 20.132 L 46.95 24.299 C 47.461 24.626 47.461 25.374 46.95 25.701 L 40.449 29.868 C 39.909 30.214 39.197 29.845 39.168 29.204 C 39.167 29.192 39.167 29.179 39.167 29.167 L 39.167 20.833 C 39.167 20.529 39.333 20.249 39.6 20.103 C 39.731 20.031 39.878 19.995 40.028 20 Z"/>
</svg>