<?xml version="1.0" encoding="utf-8"?>
<svg version="1.1" viewBox="0 0 50 50" id="svg4" xmlns="http://www.w3.org/2000/svg">
  <path style="opacity: 1; fill-opacity: 1; stroke: none; stroke-width: 3.00568; stroke-linecap: round; stroke-linejoin: round; stroke-miterlimit: 4; stroke-dasharray: none; stroke-opacity: 1; paint-order: stroke; fill: rgb(170, 170, 170);" d="M 25 0 C 11.193 0 0 11.193 0 25 C 0 38.807 11.193 50 25 50 C 38.807 50 50 38.807 50 25 C 50 11.193 38.807 0 25 0 Z M 10.465 13.789 L 39.535 13.789 C 39.703 13.789 39.86 13.827 39.994 13.909 C 40.127 13.991 40.254 14.142 40.254 14.338 L 40.254 16.71 C 40.254 16.906 40.127 17.055 39.994 17.137 C 39.86 17.219 39.703 17.257 39.535 17.257 L 10.465 17.257 C 10.297 17.257 10.14 17.219 10.006 17.137 C 9.873 17.055 9.746 16.906 9.746 16.71 L 9.746 14.338 C 9.746 14.142 9.873 13.991 10.006 13.909 C 10.14 13.827 10.297 13.789 10.465 13.789 Z M 10.465 21.516 L 39.535 21.516 C 39.703 21.516 39.86 21.554 39.994 21.636 C 40.127 21.718 40.254 21.867 40.254 22.063 L 40.254 24.435 C 40.254 24.631 40.127 24.78 39.994 24.862 C 39.86 24.944 39.703 24.983 39.535 24.983 L 10.465 24.983 C 10.297 24.983 10.14 24.944 10.006 24.862 C 9.873 24.78 9.746 24.631 9.746 24.435 L 9.746 22.063 C 9.746 21.867 9.873 21.718 10.006 21.636 C 10.14 21.554 10.297 21.516 10.465 21.516 Z M 10.465 29.241 L 39.535 29.241 C 39.703 29.241 39.86 29.279 39.994 29.361 C 40.127 29.444 40.254 29.593 40.254 29.789 L 40.254 32.16 C 40.254 32.356 40.127 32.505 39.994 32.588 C 39.86 32.67 39.703 32.708 39.535 32.708 L 10.465 32.708 C 10.297 32.708 10.14 32.67 10.006 32.588 C 9.873 32.505 9.746 32.356 9.746 32.16 L 9.746 29.789 C 9.746 29.593 9.873 29.444 10.006 29.361 C 10.14 29.279 10.297 29.241 10.465 29.241 Z" id="path4749"/>
</svg>